<?xml version="1.0" standalone="no"?>
<!DOCTYPE svg PUBLIC "-//W3C//DTD SVG 20010904//EN"
 "http://www.w3.org/TR/2001/REC-SVG-20010904/DTD/svg10.dtd">
<svg version="1.0" xmlns="http://www.w3.org/2000/svg"
 width="60px" height="60px" viewBox="0 0 980.000000 976.000000"
 preserveAspectRatio="xMidYMid meet">
<metadata>
Created by potrace 1.15, written by Peter Selinger 2001-2017
</metadata>
<g transform="translate(0.000000,976.000000) scale(0.100000,-0.100000)"
fill="#e0eefb" stroke="none">
<path d="M4824 9750 c-210 -30 -354 -228 -354 -485 0 -149 35 -238 132 -341
88 -93 178 -120 509 -154 957 -97 1643 -359 2261 -862 456 -371 899 -965 1138
-1527 174 -408 258 -773 305 -1331 26 -301 54 -398 141 -483 98 -97 210 -132
396 -125 96 4 122 8 173 32 133 61 207 142 248 271 52 167 13 712 -84 1159
-165 755 -548 1512 -1105 2181 -183 220 -394 419 -677 638 -313 243 -521 374
-832 527 -670 330 -1301 488 -2005 505 -102 2 -213 0 -246 -5z"/>
<path d="M1403 8585 c-154 -43 -243 -114 -637 -510 -337 -338 -483 -494 -564
-601 -139 -182 -201 -409 -202 -730 0 -438 88 -842 299 -1372 588 -1474 1707
-2909 3063 -3927 728 -546 1608 -1023 2323 -1259 621 -205 1208 -241 1582 -96
180 69 318 184 773 646 389 394 499 527 536 648 22 72 30 231 14 308 -16 82
-65 187 -125 268 -55 73 -1067 1094 -1248 1258 -186 169 -264 206 -467 219
-155 10 -261 -25 -405 -134 -44 -34 -245 -220 -447 -415 -201 -195 -392 -374
-423 -398 -55 -43 -56 -43 -98 -31 -61 18 -338 163 -507 264 -383 231 -769
545 -1201 976 -518 518 -867 971 -1102 1431 -84 166 -121 262 -113 294 10 40
89 129 434 485 177 183 352 370 388 415 123 153 162 274 151 466 -14 231 -34
258 -771 998 -666 669 -739 733 -896 784 -85 27 -281 35 -357 13z"/>
<path d="M4820 7920 c-61 -11 -155 -45 -205 -74 -103 -61 -193 -204 -216 -345
-29 -176 61 -396 194 -474 86 -51 154 -65 492 -103 440 -49 770 -180 1095
-433 359 -279 619 -685 734 -1146 31 -122 40 -184 61 -389 28 -273 63 -365
182 -476 92 -86 155 -113 278 -118 117 -5 197 12 288 61 106 56 200 183 226
305 35 167 -16 656 -100 957 -43 150 -114 331 -203 510 -354 719 -919 1240
-1646 1518 -299 114 -579 174 -965 207 -134 11 -151 11 -215 0z"/>
</g>
</svg>
