<svg xmlns="http://www.w3.org/2000/svg" xmlns:xlink="http://www.w3.org/1999/xlink" width="289" height="182" viewBox="0 0 289 182">
    <defs>
        <filter id="a" width="108.6%" height="113.9%" x="-4.3%" y="-6.9%" filterUnits="objectBoundingBox">
            <feOffset dy="1" in="SourceAlpha" result="shadowOffsetOuter1"/>
            <feGaussianBlur in="shadowOffsetOuter1" result="shadowBlurOuter1" stdDeviation="2.5"/>
            <feColorMatrix in="shadowBlurOuter1" result="shadowMatrixOuter1" values="0 0 0 0 0 0 0 0 0 0 0 0 0 0 0 0 0 0 0.145153986 0"/>
            <feMerge>
                <feMergeNode in="shadowMatrixOuter1"/>
                <feMergeNode in="SourceGraphic"/>
            </feMerge>
        </filter>
        <linearGradient id="b" x1="-14.279%" x2="116.278%" y1="117.723%" y2="-19.829%">
            <stop offset="0%" stop-color="#FFF"/>
            <stop offset="100%" stop-color="#E8E8E8"/>
        </linearGradient>
        <path id="c" d="M64.524.045L.958 63.794a3.14 3.14 0 0 0 0 4.428l28.9 28.983a3.119 3.119 0 0 0 4.417 0L76.029 55.33V11.55c0-6.355-5.151-11.505-11.505-11.505z"/>
        <linearGradient id="d" x1="-95.491%" x2="285.546%" y1="295.347%" y2="-10.932%">
            <stop offset="0%" stop-color="#FFF"/>
            <stop offset="100%" stop-color="#E2E2E2"/>
        </linearGradient>
        <path id="f" d="M171.408.045L.55 171.19h118.303L227.226 62.637V11.55c0-6.355-5.152-11.506-11.507-11.506h-44.311z"/>
        <linearGradient id="g" x1="154.374%" x2="-11.541%" y1="-64.899%" y2="162.249%">
            <stop offset="0%" stop-color="#FFF"/>
            <stop offset="100%" stop-color="#D3D3D3"/>
        </linearGradient>
        <path id="i" d="M1.794 72.87a4.359 4.359 0 0 0 0 6.166l37.853 37.838h34.34V.702L1.795 72.87z"/>
        <linearGradient id="j" x1="-264.126%" x2="39.375%" y1="159.193%" y2="-24.037%">
            <stop offset="0%" stop-color="#E4E4E4"/>
            <stop offset="100%" stop-color="#CBCBCB"/>
        </linearGradient>
        <path id="l" d="M.692 87.567h104.494c6.354 0 11.506-5.152 11.506-11.506V25.035L93.87 2.198a5.542 5.542 0 0 0-3.932-1.63 5.542 5.542 0 0 0-3.932 1.63L.692 87.568z"/>
        <linearGradient id="m" x1="-109.694%" x2="165.594%" y1="157.292%" y2="-176.388%">
            <stop offset="0%" stop-color="#ECECEC"/>
            <stop offset="100%" stop-color="#E7E7E7"/>
        </linearGradient>
        <path id="o" d="M.576 86.592h102.906c6.354 0 11.506-5.152 11.506-11.506V25.512L91.39 1.873A4.395 4.395 0 0 0 88.27.581c-1.13 0-2.258.43-3.119 1.292L.576 86.592z"/>
        <linearGradient id="p" x1="-36.465%" x2="143.862%" y1="58.61%" y2="136.269%">
            <stop offset="0%" stop-color="#FFF"/>
            <stop offset="100%" stop-color="#D8D8D8"/>
        </linearGradient>
    </defs>
    <g fill="none" fill-rule="evenodd">
        <g filter="url(#a)" transform="matrix(-1 0 0 1 284 4)">
            <path fill="url(#b)" d="M11.507 171.325h255.697c6.355 0 11.507-5.152 11.507-11.507V11.507C278.71 5.152 273.559 0 267.204 0H11.507C5.152 0 0 5.152 0 11.507v148.311c0 6.355 5.152 11.507 11.507 11.507z"/>
            <g transform="translate(202.475 .82)">
                <mask id="e" fill="#fff">
                    <use xlink:href="#c"/>
                </mask>
                <path fill="url(#d)" d="M64.524.045L.958 63.794a3.14 3.14 0 0 0 0 4.428l28.9 28.983a3.119 3.119 0 0 0 4.417 0L76.029 55.33V11.55c0-6.355-5.151-11.505-11.505-11.505z" mask="url(#e)"/>
            </g>
            <g transform="translate(50.824)">
                <mask id="h" fill="#fff">
                    <use xlink:href="#f"/>
                </mask>
                <path fill="url(#g)" d="M171.408.045L.55 171.19h118.303L227.226 62.637V11.55c0-6.355-5.152-11.506-11.507-11.506h-44.311z" mask="url(#h)"/>
            </g>
            <g transform="translate(204.934 54.922)">
                <mask id="k" fill="#fff">
                    <use xlink:href="#i"/>
                </mask>
                <path fill="url(#j)" d="M1.794 73.25a4.295 4.295 0 0 0 0 6.112l37.853 37.512H62.48c6.355 0 11.507-5.151 11.507-11.506V1.702L1.794 73.249z" mask="url(#k)"/>
            </g>
            <g transform="translate(162.308 83.433)">
                <mask id="n" fill="#fff">
                    <use xlink:href="#l"/>
                </mask>
                <path fill="url(#m)" d="M1.692 87.567h104.494c6.354 0 11.506-5.152 11.506-11.506V25.035L94.87 2.198a5.542 5.542 0 0 0-3.932-1.63 5.542 5.542 0 0 0-3.932 1.63L1.692 87.568z" mask="url(#n)"/>
            </g>
            <g transform="translate(163.947 85.253)">
                <mask id="q" fill="#fff">
                    <use xlink:href="#o"/>
                </mask>
                <path fill="url(#p)" d="M.576 86.592h102.906c6.354 0 11.506-5.152 11.506-11.506V25.512L91.39 1.873A4.395 4.395 0 0 0 88.27.581c-1.13 0-2.258.43-3.119 1.292L.576 86.592z" mask="url(#q)"/>
            </g>
        </g>
        <path fill="#FFF" d="M5 44h191v34H5z"/>
        <path fill="#FFF" stroke="#F74747" d="M196.5 47.5h37v28h-37z"/>
        <text fill="#2D2D2D" font-family="ShareTechMono-Regular, Share Tech Mono" font-size="14" transform="translate(5 44)">
            <tspan x="198.16" y="23">CVV</tspan>
        </text>
    </g>
</svg>
