<svg xmlns="http://www.w3.org/2000/svg" width="33" height="33" viewBox="0 0 33 33">
    <g fill="#CFDCE8" fill-rule="evenodd">
        <path d="M33 22.436c0-4.056-2.327-7.675-5.811-9.436C27.08 20.776 20.776 27.08 13 27.189 14.76 30.673 18.38 33 22.436 33c1.901 0 3.75-.506 5.375-1.469l5.143 1.423-1.423-5.143A10.526 10.526 0 0 0 33 22.436z"/>
        <path fill-rule="nonzero" d="M25 12.5C25 5.607 19.393 0 12.5 0S0 5.607 0 12.5c0 2.246.598 4.433 1.733 6.354l-1.687 6.1 6.1-1.687A12.461 12.461 0 0 0 12.5 25C19.393 25 25 19.393 25 12.5zM10.582 9.59H8.664A3.84 3.84 0 0 1 12.5 5.755a3.84 3.84 0 0 1 3.836 3.837 3.846 3.846 0 0 1-1.247 2.83l-1.63 1.492v1.496h-1.918v-2.34l2.253-2.062A1.92 1.92 0 0 0 12.5 7.673a1.92 1.92 0 0 0-1.918 1.918zm.959 7.737h1.918v1.919h-1.918v-1.919z"/>
    </g>
</svg>
